# xmcd
#
# Track frame offsets:
#	182
#	12437
#	25615
#	44025
#	54947
#	69297
#	85772
#	103115
#	120315
#	134717
#
# Disc length: 2026 seconds
# Revision: 3
# Processed by: cddbd v1.5.2PL0 Copyright (c) Steve Scherf et al.
# Submitted via: dBpowerAMP V12.0
#
DISCID=7e07e80a
DTITLE=Ray Kennedy - What a Way to Go
DYEAR=1990
DGENRE=CD
TTITLE0=Doin' Life without You
TTITLE1=What a Way to Go
TTITLE2=I Like the Way It Feels
TTITLE3=All the Love I Need
TTITLE4=Scars
TTITLE5=The Storm
TTITLE6=I Can See Where You're Comin' From
TTITLE7=Cog in the Wheel
TTITLE8=The Ruins
TTITLE9=I'm Sending One Up for You
EXTD=
EXTT0=
EXTT1=
EXTT2=
EXTT3=
EXTT4=
EXTT5=
EXTT6=
EXTT7=
EXTT8=
EXTT9=
PLAYORDER=
